<svg width="1200" height="382" viewBox="0 0 1200 382" fill="none" xmlns="http://www.w3.org/2000/svg">
  <g clipPath="url(#clip0_109_21)">
    <rect width="1200" height="382" fill="#3E66FB"/>
    <rect x="347.861" y="579.312" width="388.378" height="364.478" rx="15" transform="rotate(-121.936 347.861 579.312)" fill="#3E66FB"/>
    <rect x="348.021" y="578.623" width="387.378" height="363.478" rx="14.5" transform="rotate(-121.936 348.021 578.623)" stroke="white" strokeOpacity="0.12"/>
    <rect x="244.467" y="568.392" width="388.378" height="364.478" rx="15" transform="rotate(-121.936 244.467 568.392)" fill="#3E66FB"/>
    <rect x="244.627" y="567.703" width="387.378" height="363.478" rx="14.5" transform="rotate(-121.936 244.627 567.703)" stroke="white" strokeOpacity="0.12"/>
    <rect x="76.4426" y="610.728" width="388.378" height="364.478" rx="15" transform="rotate(-121.936 76.4426 610.728)" fill="#3E66FB"/>
    <rect x="76.6025" y="610.039" width="387.378" height="363.478" rx="14.5" transform="rotate(-121.936 76.6025 610.039)" stroke="white" strokeOpacity="0.12"/>
    <g filter="url(#filter0_d_109_21)">
      <rect x="990.808" y="145" width="294.799" height="276.658" rx="15" transform="rotate(15.6879 990.808 145)" fill="#3E66FB"/>
    </g>
  </g>
  <defs>
    <filter id="filter0_d_109_21" x="887.493" y="124.493" width="405.638" height="393.078" filterUnits="userSpaceOnUse" colorInterpolationFilters="sRGB">
      <feFlood floodOpacity="0" result="BackgroundImageFix"/>
      <feColorMatrix in="SourceAlpha" type="matrix" values="0 0 0 0 0 0 0 0 0 0 0 0 0 0 0 0 0 0 127 0" result="hardAlpha"/>
      <feOffset dx="-5" dy="3"/>
      <feGaussianBlur stdDeviation="13.5"/>
      <feComposite in2="hardAlpha" operator="out"/>
      <feColorMatrix type="matrix" values="0 0 0 0 1 0 0 0 0 1 0 0 0 0 1 0 0 0 0.16 0"/>
      <feBlend mode="normal" in2="BackgroundImageFix" result="effect1_dropShadow_109_21"/>
      <feBlend mode="normal" in="SourceGraphic" in2="effect1_dropShadow_109_21" result="shape"/>
    </filter>
    <clipPath id="clip0_109_21">
      <rect width="1200" height="382" fill="white"/>
    </clipPath>
  </defs>
</svg>
